<svg xmlns="http://www.w3.org/2000/svg" viewBox="0 0 64 64" fill="none" stroke="currentColor" stroke-width="2" stroke-linecap="round" stroke-linejoin="round">
  <!-- Cab -->
  <rect x="4" y="26" width="16" height="16" rx="2"/>
  <rect x="7" y="29" width="10" height="6" rx="1" fill="currentColor" opacity="0.15"/>
  <!-- Drum -->
  <ellipse cx="38" cy="28" rx="16" ry="12" transform="rotate(-15 38 28)"/>
  <ellipse cx="38" cy="28" rx="10" ry="7" transform="rotate(-15 38 28)" opacity="0.2" fill="currentColor"/>
  <!-- Drum stripes -->
  <path d="M28 22 Q38 18 48 22" opacity="0.3"/>
  <path d="M26 28 Q38 24 50 28" opacity="0.3"/>
  <path d="M28 34 Q38 30 48 34" opacity="0.3"/>
  <!-- Chute -->
  <line x1="52" y1="20" x2="60" y2="14"/>
  <line x1="52" y1="23" x2="60" y2="17"/>
  <!-- Frame -->
  <line x1="20" y1="42" x2="56" y2="42"/>
  <!-- Wheels -->
  <circle cx="12" cy="46" r="5"/>
  <circle cx="12" cy="46" r="2"/>
  <circle cx="36" cy="46" r="5"/>
  <circle cx="36" cy="46" r="2"/>
  <circle cx="50" cy="46" r="5"/>
  <circle cx="50" cy="46" r="2"/>
</svg>