<svg xmlns="http://www.w3.org/2000/svg" viewBox="0 0 64 64" fill="none" stroke="currentColor" stroke-width="2" stroke-linecap="round" stroke-linejoin="round">
  <!-- Cab -->
  <rect x="4" y="22" width="18" height="20" rx="2"/>
  <rect x="7" y="25" width="12" height="8" rx="1" fill="currentColor" opacity="0.15"/>
  <!-- Flatbed -->
  <line x1="22" y1="38" x2="58" y2="38" stroke-width="3"/>
  <line x1="22" y1="42" x2="58" y2="42"/>
  <!-- Bed supports -->
  <line x1="26" y1="38" x2="26" y2="42"/>
  <line x1="38" y1="38" x2="38" y2="42"/>
  <line x1="50" y1="38" x2="50" y2="42"/>
  <!-- Stakes -->
  <line x1="24" y1="28" x2="24" y2="38" opacity="0.5"/>
  <line x1="42" y1="28" x2="42" y2="38" opacity="0.5"/>
  <line x1="56" y1="28" x2="56" y2="38" opacity="0.5"/>
  <!-- Wheels -->
  <circle cx="14" cy="46" r="5"/>
  <circle cx="14" cy="46" r="2"/>
  <circle cx="36" cy="46" r="5"/>
  <circle cx="36" cy="46" r="2"/>
  <circle cx="50" cy="46" r="5"/>
  <circle cx="50" cy="46" r="2"/>
</svg>